<svg xmlns="http://www.w3.org/2000/svg" viewBox="0 0 512 512"><path d="M256 0C114.837 0 0 114.837 0 256s114.837 256 256 256 256-114.837 256-256S397.163 0 256 0zm100.416 228.416a21.275 21.275 0 01-15.083 6.251 21.277 21.277 0 01-15.083-6.251l-48.917-48.917V384c0 11.776-9.536 21.333-21.333 21.333s-21.333-9.557-21.333-21.333V179.499l-48.917 48.917c-8.341 8.341-21.824 8.341-30.165 0s-8.341-21.824 0-30.165l85.312-85.312c1.963-1.984 4.331-3.541 6.955-4.629a21.354 21.354 0 0116.299 0c2.624 1.088 4.992 2.645 6.955 4.629l85.312 85.312c8.339 8.341 8.339 21.824-.002 30.165z"/></svg>